<svg width="100" height="32" viewBox="0 0 100 32" fill="none" xmlns="http://www.w3.org/2000/svg">
<path d="M8 0.5H24C28.1421 0.5 31.5 3.85786 31.5 8V24C31.5 28.1421 28.1421 31.5 24 31.5H8C3.85786 31.5 0.5 28.1421 0.5 24V8C0.5 3.85786 3.85786 0.5 8 0.5Z" fill="#0A0A0A"/>
<path d="M8 0.5H24C28.1421 0.5 31.5 3.85786 31.5 8V24C31.5 28.1421 28.1421 31.5 24 31.5H8C3.85786 31.5 0.5 28.1421 0.5 24V8C0.5 3.85786 3.85786 0.5 8 0.5Z" stroke="#262626"/>
<path d="M10.3955 16.7699C9.62477 14.0918 11.171 11.2961 13.849 10.5254L22.6236 8.00018C23.3943 10.6782 21.8482 13.4739 19.1702 14.2446L10.3955 16.7699Z" fill="white"/>
<path d="M7.70278 22.3629C7.31465 21.0142 8.09333 19.6063 9.44202 19.2181L20.6236 16.0002C21.3999 18.6976 19.8426 21.5135 17.1452 22.2898L10.8476 24.1021C9.49889 24.4903 8.09092 23.7116 7.70278 22.3629Z" fill="white"/>
<path d="M45.814 15.772C44.8507 15.772 44.012 15.5963 43.298 15.245C42.5953 14.8937 42.04 14.4063 41.632 13.783C41.224 13.1597 40.986 12.4343 40.918 11.607L42.805 11.488C42.8843 12.0547 43.0487 12.5363 43.298 12.933C43.5473 13.3183 43.8817 13.613 44.301 13.817C44.7317 14.0097 45.2473 14.106 45.848 14.106C46.3693 14.106 46.8113 14.0437 47.174 13.919C47.548 13.783 47.8313 13.5847 48.024 13.324C48.2167 13.0633 48.313 12.746 48.313 12.372C48.313 12.032 48.228 11.7317 48.058 11.471C47.8993 11.199 47.5877 10.9553 47.123 10.74C46.6697 10.5133 46.001 10.2923 45.117 10.077C44.1537 9.839 43.383 9.57833 42.805 9.295C42.227 9.01167 41.8077 8.66033 41.547 8.241C41.2977 7.81033 41.173 7.28333 41.173 6.66C41.173 5.96867 41.3373 5.36233 41.666 4.841C42.006 4.30833 42.4877 3.89467 43.111 3.6C43.7343 3.30533 44.4823 3.158 45.355 3.158C46.273 3.158 47.055 3.328 47.701 3.668C48.3583 4.008 48.874 4.47267 49.248 5.062C49.6333 5.65133 49.8713 6.32567 49.962 7.085L48.075 7.187C48.0183 6.72233 47.8767 6.31433 47.65 5.963C47.4233 5.60033 47.1173 5.32267 46.732 5.13C46.3467 4.926 45.8763 4.824 45.321 4.824C44.6183 4.824 44.063 4.98833 43.655 5.317C43.2583 5.63433 43.06 6.05933 43.06 6.592C43.06 6.932 43.1393 7.221 43.298 7.459C43.468 7.68567 43.7627 7.884 44.182 8.054C44.6127 8.224 45.219 8.40533 46.001 8.598C47.0437 8.836 47.871 9.13067 48.483 9.482C49.1063 9.822 49.5483 10.2243 49.809 10.689C50.0697 11.1537 50.2 11.6807 50.2 12.27C50.2 12.984 50.013 13.6073 49.639 14.14C49.2763 14.6613 48.7663 15.0637 48.109 15.347C47.4517 15.6303 46.6867 15.772 45.814 15.772ZM52.149 15.5V3.43H53.951V8.496L53.73 8.462C53.832 7.952 54.019 7.53833 54.291 7.221C54.563 6.89233 54.8974 6.64867 55.294 6.49C55.6907 6.33133 56.127 6.252 56.603 6.252C57.2604 6.252 57.8157 6.39933 58.269 6.694C58.7224 6.97733 59.0624 7.37967 59.289 7.901C59.527 8.42233 59.646 9.01733 59.646 9.686V15.5H57.844V10.162C57.844 9.346 57.7024 8.74533 57.419 8.36C57.147 7.96333 56.7164 7.765 56.127 7.765C55.4697 7.765 54.9427 7.97467 54.546 8.394C54.1494 8.802 53.951 9.40267 53.951 10.196V15.5H52.149ZM64.5434 15.704C63.6027 15.704 62.849 15.4887 62.2824 15.058C61.727 14.6273 61.4494 14.021 61.4494 13.239C61.4494 12.457 61.6817 11.8507 62.1464 11.42C62.6224 10.978 63.3534 10.6607 64.3394 10.468L67.4504 9.873C67.4504 9.17033 67.286 8.649 66.9574 8.309C66.6287 7.95767 66.1414 7.782 65.4954 7.782C64.9174 7.782 64.464 7.91233 64.1354 8.173C63.8067 8.42233 63.58 8.79633 63.4554 9.295L61.6024 9.176C61.7724 8.26933 62.1917 7.55533 62.8604 7.034C63.5404 6.51267 64.4187 6.252 65.4954 6.252C66.7194 6.252 67.6487 6.58067 68.2834 7.238C68.9294 7.884 69.2524 8.79633 69.2524 9.975V13.494C69.2524 13.7093 69.2864 13.8623 69.3544 13.953C69.4337 14.0323 69.5584 14.072 69.7284 14.072H70.0514V15.5C69.9947 15.5113 69.904 15.5227 69.7794 15.534C69.6547 15.5453 69.5244 15.551 69.3884 15.551C69.003 15.551 68.6687 15.4887 68.3854 15.364C68.1134 15.2393 67.9094 15.0353 67.7734 14.752C67.6374 14.4573 67.5694 14.0663 67.5694 13.579L67.7564 13.664C67.6657 14.0607 67.4674 14.412 67.1614 14.718C66.8667 15.024 66.487 15.2677 66.0224 15.449C65.569 15.619 65.076 15.704 64.5434 15.704ZM64.8324 14.276C65.3764 14.276 65.841 14.174 66.2264 13.97C66.6117 13.7547 66.912 13.46 67.1274 13.086C67.3427 12.712 67.4504 12.287 67.4504 11.811V11.233L64.7984 11.743C64.2544 11.845 63.869 12.0093 63.6424 12.236C63.427 12.4513 63.3194 12.729 63.3194 13.069C63.3194 13.4543 63.4497 13.7547 63.7104 13.97C63.9824 14.174 64.3564 14.276 64.8324 14.276ZM74.7194 15.704C73.9488 15.704 73.2744 15.5113 72.6964 15.126C72.1298 14.7407 71.6934 14.1967 71.3874 13.494C71.0928 12.78 70.9454 11.9413 70.9454 10.978C70.9454 10.0147 71.0984 9.18167 71.4044 8.479C71.7104 7.765 72.1468 7.21533 72.7134 6.83C73.2801 6.44467 73.9488 6.252 74.7194 6.252C75.3428 6.252 75.8981 6.38233 76.3854 6.643C76.8728 6.90367 77.2411 7.26633 77.4904 7.731V3.43H79.2924V15.5H77.6094L77.5584 14.14C77.3091 14.6273 76.9294 15.0127 76.4194 15.296C75.9208 15.568 75.3541 15.704 74.7194 15.704ZM75.1954 14.14C75.6828 14.14 76.0964 14.0153 76.4364 13.766C76.7764 13.5167 77.0371 13.154 77.2184 12.678C77.3998 12.202 77.4904 11.6353 77.4904 10.978C77.4904 10.298 77.3998 9.72567 77.2184 9.261C77.0371 8.785 76.7764 8.428 76.4364 8.19C76.0964 7.94067 75.6828 7.816 75.1954 7.816C74.4701 7.816 73.8921 8.09933 73.4614 8.666C73.0308 9.22133 72.8154 9.992 72.8154 10.978C72.8154 11.9527 73.0308 12.7233 73.4614 13.29C73.8921 13.8567 74.4701 14.14 75.1954 14.14ZM85.4062 15.704C84.5449 15.704 83.7912 15.5113 83.1452 15.126C82.4992 14.7407 82.0005 14.191 81.6492 13.477C81.2979 12.763 81.1222 11.93 81.1222 10.978C81.1222 10.026 81.2979 9.19867 81.6492 8.496C82.0005 7.782 82.4992 7.23233 83.1452 6.847C83.7912 6.45033 84.5449 6.252 85.4062 6.252C86.1429 6.252 86.7945 6.38233 87.3612 6.643C87.9392 6.89233 88.4039 7.26067 88.7552 7.748C89.1179 8.23533 89.3502 8.83033 89.4522 9.533L87.5652 9.635C87.4745 9.04567 87.2365 8.598 86.8512 8.292C86.4659 7.97467 85.9842 7.816 85.4062 7.816C84.6469 7.816 84.0519 8.09933 83.6212 8.666C83.2019 9.22133 82.9922 9.992 82.9922 10.978C82.9922 11.964 83.2019 12.7403 83.6212 13.307C84.0519 13.8623 84.6469 14.14 85.4062 14.14C85.9842 14.14 86.4659 13.9813 86.8512 13.664C87.2365 13.3353 87.4745 12.8423 87.5652 12.185L89.4522 12.287C89.3502 12.9783 89.1179 13.579 88.7552 14.089C88.4039 14.599 87.9392 14.9957 87.3612 15.279C86.7945 15.5623 86.1429 15.704 85.4062 15.704ZM91.0963 15.5V6.456H92.7453L92.8133 8.87L92.5923 8.751C92.6943 8.16167 92.887 7.68567 93.1703 7.323C93.4536 6.96033 93.7993 6.694 94.2073 6.524C94.6153 6.34267 95.0573 6.252 95.5333 6.252C96.2133 6.252 96.7743 6.405 97.2163 6.711C97.6696 7.00567 98.0096 7.41367 98.2363 7.935C98.4743 8.445 98.5933 9.02867 98.5933 9.686V15.5H96.7913V10.23C96.7913 9.69733 96.7346 9.24967 96.6213 8.887C96.508 8.52433 96.321 8.24667 96.0603 8.054C95.7996 7.86133 95.4596 7.765 95.0403 7.765C94.4056 7.765 93.89 7.97467 93.4933 8.394C93.0966 8.81333 92.8983 9.42533 92.8983 10.23V15.5H91.0963Z" fill="#FAFAFA"/>
<path d="M41.104 29.5V20.98H43.744C45.056 20.98 46.064 21.352 46.768 22.096C47.48 22.832 47.836 23.884 47.836 25.252C47.836 26.612 47.488 27.66 46.792 28.396C46.096 29.132 45.104 29.5 43.816 29.5H41.104ZM42.136 28.492H43.744C44.744 28.492 45.496 28.224 46 27.688C46.504 27.144 46.756 26.332 46.756 25.252C46.756 24.156 46.504 23.34 46 22.804C45.496 22.26 44.744 21.988 43.744 21.988H42.136V28.492ZM51.1721 29.644C50.5161 29.644 49.9921 29.492 49.6001 29.188C49.2161 28.884 49.0241 28.46 49.0241 27.916C49.0241 27.372 49.1841 26.944 49.5041 26.632C49.8241 26.32 50.3321 26.1 51.0281 25.972L53.2841 25.552C53.2841 25.016 53.1561 24.616 52.9001 24.352C52.6521 24.088 52.2761 23.956 51.7721 23.956C51.3321 23.956 50.9841 24.056 50.7281 24.256C50.4721 24.448 50.2961 24.728 50.2001 25.096L49.1321 25.012C49.2521 24.412 49.5401 23.928 49.9961 23.56C50.4601 23.184 51.0521 22.996 51.7721 22.996C52.5881 22.996 53.2121 23.228 53.6441 23.692C54.0761 24.148 54.2921 24.78 54.2921 25.588V28.216C54.2921 28.36 54.3161 28.464 54.3641 28.528C54.4201 28.584 54.5081 28.612 54.6281 28.612H54.8801V29.5C54.8481 29.508 54.7961 29.512 54.7241 29.512C54.6521 29.52 54.5761 29.524 54.4961 29.524C54.2081 29.524 53.9721 29.48 53.7881 29.392C53.6121 29.296 53.4841 29.152 53.4041 28.96C53.3241 28.76 53.2841 28.5 53.2841 28.18L53.4041 28.204C53.3481 28.476 53.2121 28.724 52.9961 28.948C52.7801 29.164 52.5121 29.336 52.1921 29.464C51.8721 29.584 51.5321 29.644 51.1721 29.644ZM51.2681 28.756C51.6921 28.756 52.0521 28.676 52.3481 28.516C52.6521 28.348 52.8841 28.124 53.0441 27.844C53.2041 27.556 53.2841 27.236 53.2841 26.884V26.428L51.2201 26.812C50.7881 26.892 50.4881 27.016 50.3201 27.184C50.1601 27.344 50.0801 27.556 50.0801 27.82C50.0801 28.116 50.1841 28.348 50.3921 28.516C50.6081 28.676 50.9001 28.756 51.2681 28.756ZM58.3112 29.644C57.7432 29.644 57.2592 29.552 56.8592 29.368C56.4672 29.184 56.1592 28.932 55.9352 28.612C55.7192 28.284 55.5952 27.912 55.5632 27.496L56.6192 27.424C56.6832 27.808 56.8472 28.116 57.1112 28.348C57.3752 28.572 57.7752 28.684 58.3112 28.684C58.7432 28.684 59.0872 28.616 59.3432 28.48C59.6072 28.336 59.7392 28.108 59.7392 27.796C59.7392 27.628 59.6992 27.488 59.6192 27.376C59.5392 27.264 59.3832 27.168 59.1512 27.088C58.9192 27 58.5752 26.916 58.1192 26.836C57.5112 26.724 57.0312 26.588 56.6792 26.428C56.3352 26.26 56.0872 26.056 55.9352 25.816C55.7912 25.568 55.7192 25.276 55.7192 24.94C55.7192 24.372 55.9272 23.908 56.3432 23.548C56.7592 23.18 57.3512 22.996 58.1192 22.996C58.6392 22.996 59.0752 23.092 59.4272 23.284C59.7872 23.468 60.0672 23.716 60.2672 24.028C60.4752 24.332 60.6112 24.668 60.6752 25.036L59.6192 25.108C59.5712 24.884 59.4832 24.688 59.3552 24.52C59.2272 24.344 59.0592 24.208 58.8512 24.112C58.6432 24.008 58.3952 23.956 58.1072 23.956C57.6512 23.956 57.3152 24.044 57.0992 24.22C56.8832 24.396 56.7752 24.62 56.7752 24.892C56.7752 25.1 56.8232 25.272 56.9192 25.408C57.0232 25.536 57.1872 25.644 57.4112 25.732C57.6352 25.812 57.9352 25.884 58.3112 25.948C58.9592 26.06 59.4632 26.196 59.8232 26.356C60.1832 26.516 60.4352 26.712 60.5792 26.944C60.7232 27.176 60.7952 27.46 60.7952 27.796C60.7952 28.188 60.6832 28.524 60.4592 28.804C60.2432 29.076 59.9472 29.284 59.5712 29.428C59.2032 29.572 58.7832 29.644 58.3112 29.644ZM62.1709 29.5V20.98H63.1789V24.544L63.0589 24.52C63.1389 24.168 63.2749 23.88 63.4669 23.656C63.6589 23.432 63.8949 23.268 64.1749 23.164C64.4549 23.052 64.7629 22.996 65.0989 22.996C65.5549 22.996 65.9389 23.1 66.2509 23.308C66.5709 23.508 66.8109 23.792 66.9709 24.16C67.1389 24.52 67.2229 24.936 67.2229 25.408V29.5H66.2149V25.696C66.2149 25.08 66.1029 24.624 65.8789 24.328C65.6629 24.032 65.3309 23.884 64.8829 23.884C64.3709 23.884 63.9589 24.04 63.6469 24.352C63.3349 24.664 63.1789 25.116 63.1789 25.708V29.5H62.1709ZM71.9424 29.644C71.5024 29.644 71.1104 29.548 70.7664 29.356C70.4224 29.156 70.1584 28.884 69.9744 28.54L69.9384 29.5H69.0264V20.98H70.0344V24.028C70.1944 23.764 70.4424 23.528 70.7784 23.32C71.1144 23.104 71.5024 22.996 71.9424 22.996C72.5024 22.996 72.9864 23.132 73.3944 23.404C73.8024 23.676 74.1184 24.06 74.3424 24.556C74.5664 25.052 74.6784 25.64 74.6784 26.32C74.6784 27 74.5664 27.588 74.3424 28.084C74.1184 28.58 73.8024 28.964 73.3944 29.236C72.9864 29.508 72.5024 29.644 71.9424 29.644ZM71.8824 28.684C72.4184 28.684 72.8424 28.472 73.1544 28.048C73.4664 27.624 73.6224 27.048 73.6224 26.32C73.6224 25.584 73.4664 25.008 73.1544 24.592C72.8424 24.168 72.4264 23.956 71.9064 23.956C71.5144 23.956 71.1784 24.052 70.8984 24.244C70.6184 24.428 70.4024 24.696 70.2504 25.048C70.1064 25.4 70.0344 25.824 70.0344 26.32C70.0344 26.8 70.1064 27.22 70.2504 27.58C70.4024 27.932 70.6144 28.204 70.8864 28.396C71.1664 28.588 71.4984 28.684 71.8824 28.684ZM78.5299 29.644C77.9459 29.644 77.4339 29.508 76.9939 29.236C76.5539 28.964 76.2139 28.58 75.9739 28.084C75.7339 27.58 75.6139 26.992 75.6139 26.32C75.6139 25.64 75.7339 25.052 75.9739 24.556C76.2139 24.06 76.5539 23.676 76.9939 23.404C77.4339 23.132 77.9459 22.996 78.5299 22.996C79.1139 22.996 79.6219 23.132 80.0539 23.404C80.4939 23.676 80.8339 24.06 81.0739 24.556C81.3139 25.052 81.4339 25.64 81.4339 26.32C81.4339 26.992 81.3139 27.58 81.0739 28.084C80.8339 28.58 80.4939 28.964 80.0539 29.236C79.6219 29.508 79.1139 29.644 78.5299 29.644ZM78.5299 28.684C79.1139 28.684 79.5659 28.476 79.8859 28.06C80.2139 27.636 80.3779 27.056 80.3779 26.32C80.3779 25.584 80.2139 25.008 79.8859 24.592C79.5659 24.168 79.1139 23.956 78.5299 23.956C77.9459 23.956 77.4899 24.168 77.1619 24.592C76.8339 25.008 76.6699 25.584 76.6699 26.32C76.6699 27.056 76.8339 27.636 77.1619 28.06C77.4899 28.476 77.9459 28.684 78.5299 28.684ZM84.6877 29.644C84.0317 29.644 83.5077 29.492 83.1157 29.188C82.7317 28.884 82.5397 28.46 82.5397 27.916C82.5397 27.372 82.6997 26.944 83.0197 26.632C83.3397 26.32 83.8477 26.1 84.5437 25.972L86.7997 25.552C86.7997 25.016 86.6717 24.616 86.4157 24.352C86.1677 24.088 85.7917 23.956 85.2877 23.956C84.8477 23.956 84.4997 24.056 84.2437 24.256C83.9877 24.448 83.8117 24.728 83.7157 25.096L82.6477 25.012C82.7677 24.412 83.0557 23.928 83.5117 23.56C83.9757 23.184 84.5677 22.996 85.2877 22.996C86.1037 22.996 86.7277 23.228 87.1597 23.692C87.5917 24.148 87.8077 24.78 87.8077 25.588V28.216C87.8077 28.36 87.8317 28.464 87.8797 28.528C87.9357 28.584 88.0237 28.612 88.1437 28.612H88.3957V29.5C88.3637 29.508 88.3117 29.512 88.2397 29.512C88.1677 29.52 88.0917 29.524 88.0117 29.524C87.7237 29.524 87.4877 29.48 87.3037 29.392C87.1277 29.296 86.9997 29.152 86.9197 28.96C86.8397 28.76 86.7997 28.5 86.7997 28.18L86.9197 28.204C86.8637 28.476 86.7277 28.724 86.5117 28.948C86.2957 29.164 86.0277 29.336 85.7077 29.464C85.3877 29.584 85.0477 29.644 84.6877 29.644ZM84.7837 28.756C85.2077 28.756 85.5677 28.676 85.8637 28.516C86.1677 28.348 86.3997 28.124 86.5597 27.844C86.7197 27.556 86.7997 27.236 86.7997 26.884V26.428L84.7357 26.812C84.3037 26.892 84.0037 27.016 83.8357 27.184C83.6757 27.344 83.5957 27.556 83.5957 27.82C83.5957 28.116 83.6997 28.348 83.9077 28.516C84.1237 28.676 84.4157 28.756 84.7837 28.756ZM89.5342 29.5V23.14H90.4222L90.4702 24.748L90.3742 24.712C90.4542 24.168 90.6262 23.772 90.8902 23.524C91.1622 23.268 91.5222 23.14 91.9702 23.14H92.5942V24.1H91.9822C91.6622 24.1 91.3942 24.16 91.1782 24.28C90.9702 24.392 90.8102 24.564 90.6982 24.796C90.5942 25.02 90.5422 25.308 90.5422 25.66V29.5H89.5342ZM95.8566 29.644C95.3046 29.644 94.8246 29.508 94.4166 29.236C94.0166 28.964 93.7086 28.58 93.4926 28.084C93.2766 27.588 93.1686 27 93.1686 26.32C93.1686 25.64 93.2766 25.052 93.4926 24.556C93.7086 24.06 94.0166 23.676 94.4166 23.404C94.8246 23.132 95.3046 22.996 95.8566 22.996C96.2806 22.996 96.6686 23.088 97.0206 23.272C97.3726 23.448 97.6366 23.7 97.8126 24.028V20.98H98.8206V29.5H97.9086L97.8726 28.54C97.6966 28.884 97.4286 29.156 97.0686 29.356C96.7086 29.548 96.3046 29.644 95.8566 29.644ZM96.0606 28.684C96.4366 28.684 96.7526 28.588 97.0086 28.396C97.2726 28.204 97.4726 27.932 97.6086 27.58C97.7446 27.22 97.8126 26.8 97.8126 26.32C97.8126 25.824 97.7446 25.4 97.6086 25.048C97.4726 24.696 97.2726 24.428 97.0086 24.244C96.7526 24.052 96.4366 23.956 96.0606 23.956C95.5006 23.956 95.0526 24.168 94.7166 24.592C94.3886 25.008 94.2246 25.584 94.2246 26.32C94.2246 27.048 94.3886 27.624 94.7166 28.048C95.0526 28.472 95.5006 28.684 96.0606 28.684Z" fill="#D4D4D4"/>
</svg>
