<svg width="110" height="32" viewBox="0 0 110 32" fill="none" xmlns="http://www.w3.org/2000/svg">
<rect width="32" height="32" rx="16" fill="black"/>
<path d="M25.7067 15.6006C25.2148 15.6897 24.7081 15.7362 24.1906 15.7362C19.5114 15.7362 15.7182 11.935 15.7182 7.24593C15.7182 7.11556 15.7212 6.98587 15.727 6.85693C11.0734 7.28407 7.42871 11.2058 7.42871 15.9805C7.42871 21.0406 11.5221 25.1426 16.5716 25.1426C21.621 25.1426 25.7144 21.0406 25.7144 15.9805C25.7144 15.8533 25.7118 15.7266 25.7067 15.6006Z" fill="white"/>
<path d="M46.84 17.66C45.8933 17.66 45 17.52 44.16 17.24C43.3333 16.9467 42.64 16.4867 42.08 15.86C41.52 15.22 41.1533 14.3867 40.98 13.36H43.52C43.68 13.88 43.9333 14.2867 44.28 14.58C44.64 14.8733 45.06 15.08 45.54 15.2C46.02 15.3067 46.5067 15.36 47 15.36C47.44 15.36 47.8533 15.3067 48.24 15.2C48.64 15.08 48.9667 14.8867 49.22 14.62C49.4867 14.3533 49.62 14 49.62 13.56C49.62 13.2267 49.5467 12.96 49.4 12.76C49.2667 12.5467 49.0733 12.3733 48.82 12.24C48.58 12.0933 48.2867 11.98 47.94 11.9C47.6067 11.7933 47.2467 11.7 46.86 11.62C46.4733 11.54 46.0933 11.4533 45.72 11.36C45.3467 11.2667 44.9933 11.1467 44.66 11C44.2333 10.8533 43.82 10.6867 43.42 10.5C43.0333 10.3 42.6933 10.06 42.4 9.78C42.12 9.5 41.8933 9.15333 41.72 8.74C41.5467 8.32667 41.46 7.83333 41.46 7.26C41.46 6.60667 41.5667 6.04667 41.78 5.58C42.0067 5.1 42.3 4.70667 42.66 4.4C43.0333 4.09333 43.4467 3.85333 43.9 3.68C44.3667 3.50667 44.8467 3.38 45.34 3.3C45.8467 3.22 46.3267 3.18 46.78 3.18C47.66 3.18 48.46 3.32667 49.18 3.62C49.9133 3.91333 50.5133 4.36667 50.98 4.98C51.4467 5.59333 51.7133 6.38 51.78 7.34H49.36C49.3067 6.88667 49.1467 6.52667 48.88 6.26C48.6133 5.98 48.28 5.78 47.88 5.66C47.48 5.52667 47.0467 5.46 46.58 5.46C46.26 5.46 45.94 5.48667 45.62 5.54C45.3133 5.59333 45.0333 5.68667 44.78 5.82C44.54 5.95333 44.34 6.13333 44.18 6.36C44.0333 6.57333 43.96 6.84667 43.96 7.18C43.96 7.47333 44.0333 7.73333 44.18 7.96C44.3267 8.17333 44.5267 8.35333 44.78 8.5C45.0467 8.64667 45.36 8.78 45.72 8.9C46.1867 9.08667 46.6933 9.22667 47.24 9.32C47.8 9.41333 48.3267 9.54 48.82 9.7C49.3 9.83333 49.74 10 50.14 10.2C50.5533 10.3867 50.9067 10.62 51.2 10.9C51.4933 11.1667 51.72 11.5 51.88 11.9C52.0533 12.2867 52.14 12.7533 52.14 13.3C52.14 14.1 51.9933 14.78 51.7 15.34C51.42 15.8867 51.0267 16.3333 50.52 16.68C50.0267 17.0267 49.46 17.28 48.82 17.44C48.1933 17.5867 47.5333 17.66 46.84 17.66ZM53.9245 17.5V3.36H56.3645V8.32C56.6445 7.96 56.9712 7.66667 57.3445 7.44C57.7179 7.21333 58.1112 7.05333 58.5245 6.96C58.9379 6.85333 59.3312 6.8 59.7045 6.8C60.7045 6.8 61.4912 7.02 62.0645 7.46C62.6379 7.9 63.0379 8.48667 63.2645 9.22C63.5045 9.95333 63.6245 10.78 63.6245 11.7V17.5H61.1845V12.12C61.1845 11.76 61.1579 11.3933 61.1045 11.02C61.0512 10.6467 60.9445 10.3133 60.7845 10.02C60.6379 9.71333 60.4112 9.46667 60.1045 9.28C59.8112 9.09333 59.4179 9 58.9245 9C58.4579 9 58.0579 9.1 57.7245 9.3C57.3912 9.48667 57.1245 9.74667 56.9245 10.08C56.7379 10.4133 56.5979 10.78 56.5045 11.18C56.4112 11.58 56.3645 11.98 56.3645 12.38V17.5H53.9245ZM68.8767 17.64C68.3834 17.64 67.9167 17.5733 67.4767 17.44C67.0367 17.3067 66.6434 17.1133 66.2967 16.86C65.9501 16.5933 65.6701 16.2667 65.4567 15.88C65.2567 15.48 65.1567 15.0133 65.1567 14.48C65.1567 13.8 65.2901 13.2467 65.5567 12.82C65.8234 12.38 66.1834 12.0467 66.6367 11.82C67.1034 11.5933 67.6301 11.44 68.2167 11.36C68.8034 11.2667 69.4167 11.22 70.0567 11.22H72.1167C72.1167 10.7533 72.0434 10.3533 71.8967 10.02C71.7501 9.67333 71.5167 9.4 71.1967 9.2C70.8901 9 70.4901 8.9 69.9967 8.9C69.6767 8.9 69.3767 8.94 69.0967 9.02C68.8301 9.08667 68.5967 9.2 68.3967 9.36C68.2101 9.50667 68.0767 9.7 67.9967 9.94H65.4967C65.5901 9.39333 65.7767 8.92667 66.0567 8.54C66.3501 8.14 66.7034 7.81333 67.1167 7.56C67.5434 7.30667 68.0101 7.12 68.5167 7C69.0234 6.86667 69.5367 6.8 70.0567 6.8C71.5901 6.8 72.7034 7.24 73.3967 8.12C74.1034 9 74.4567 10.2333 74.4567 11.82V17.5H72.2967L72.2367 16.14C71.9301 16.5933 71.5634 16.9267 71.1367 17.14C70.7101 17.3533 70.2967 17.4867 69.8967 17.54C69.4967 17.6067 69.1567 17.64 68.8767 17.64ZM69.3567 15.66C69.8901 15.66 70.3634 15.56 70.7767 15.36C71.1901 15.16 71.5167 14.88 71.7567 14.52C72.0101 14.16 72.1367 13.7467 72.1367 13.28V12.94H70.2167C69.8967 12.94 69.5767 12.9533 69.2567 12.98C68.9501 12.9933 68.6701 13.0467 68.4167 13.14C68.1634 13.22 67.9567 13.3467 67.7967 13.52C67.6501 13.6933 67.5767 13.94 67.5767 14.26C67.5767 14.58 67.6567 14.84 67.8167 15.04C67.9901 15.24 68.2101 15.3933 68.4767 15.5C68.7567 15.6067 69.0501 15.66 69.3567 15.66ZM80.6862 17.64C79.6196 17.64 78.7396 17.4 78.0462 16.92C77.3529 16.4267 76.8329 15.7733 76.4862 14.96C76.1529 14.1467 75.9862 13.24 75.9862 12.24C75.9862 11.2 76.1662 10.2733 76.5262 9.46C76.8862 8.63333 77.4262 7.98667 78.1462 7.52C78.8662 7.04 79.7662 6.8 80.8462 6.8C81.2462 6.8 81.6329 6.84667 82.0062 6.94C82.3929 7.02 82.7529 7.15333 83.0862 7.34C83.4329 7.51333 83.7196 7.74667 83.9462 8.04V3.36H86.3862V17.5H84.0262L83.9862 16.18C83.7329 16.5133 83.4329 16.7867 83.0862 17C82.7529 17.2133 82.3796 17.3733 81.9662 17.48C81.5529 17.5867 81.1262 17.64 80.6862 17.64ZM81.1462 15.44C81.7862 15.44 82.3129 15.2933 82.7262 15C83.1396 14.6933 83.4462 14.2933 83.6462 13.8C83.8596 13.2933 83.9662 12.76 83.9662 12.2C83.9662 11.6133 83.8596 11.08 83.6462 10.6C83.4462 10.12 83.1396 9.73333 82.7262 9.44C82.3129 9.14667 81.7862 9 81.1462 9C80.4662 9 79.9262 9.15333 79.5262 9.46C79.1396 9.76667 78.8529 10.1733 78.6662 10.68C78.4929 11.1733 78.4062 11.7067 78.4062 12.28C78.4062 12.7067 78.4529 13.1133 78.5462 13.5C78.6529 13.8733 78.8129 14.2067 79.0262 14.5C79.2396 14.7933 79.5196 15.0267 79.8662 15.2C80.2129 15.36 80.6396 15.44 81.1462 15.44ZM92.9895 17.64C91.8962 17.64 90.9762 17.42 90.2295 16.98C89.4829 16.5267 88.9162 15.8933 88.5295 15.08C88.1429 14.2667 87.9495 13.3267 87.9495 12.26C87.9495 11.1933 88.1495 10.2533 88.5495 9.44C88.9495 8.61333 89.5362 7.96667 90.3095 7.5C91.0829 7.03333 92.0229 6.8 93.1295 6.8C93.9429 6.8 94.6629 6.94 95.2895 7.22C95.9295 7.5 96.4429 7.91333 96.8295 8.46C97.2295 8.99333 97.4829 9.66 97.5895 10.46H95.1895C95.0295 9.95333 94.7629 9.58667 94.3895 9.36C94.0295 9.12 93.5962 9 93.0895 9C92.4095 9 91.8695 9.16667 91.4695 9.5C91.0829 9.82 90.8029 10.2267 90.6295 10.72C90.4562 11.2133 90.3695 11.7267 90.3695 12.26C90.3695 12.82 90.4629 13.3467 90.6495 13.84C90.8362 14.32 91.1229 14.7067 91.5095 15C91.9095 15.2933 92.4229 15.44 93.0495 15.44C93.5562 15.44 94.0095 15.3267 94.4095 15.1C94.8229 14.8733 95.0895 14.5067 95.2095 14H97.6895C97.5962 14.8133 97.3229 15.4933 96.8695 16.04C96.4295 16.5733 95.8695 16.9733 95.1895 17.24C94.5095 17.5067 93.7762 17.64 92.9895 17.64ZM99.1214 17.5V6.96H101.401L101.541 8.3C101.821 7.92667 102.148 7.63333 102.521 7.42C102.895 7.20667 103.288 7.05333 103.701 6.96C104.115 6.85333 104.501 6.8 104.861 6.8C105.861 6.8 106.648 7.02 107.221 7.46C107.808 7.9 108.221 8.48667 108.461 9.22C108.701 9.95333 108.821 10.7733 108.821 11.68V17.5H106.381V12.08C106.381 11.6933 106.355 11.32 106.301 10.96C106.248 10.5867 106.141 10.2533 105.981 9.96C105.835 9.66667 105.621 9.43333 105.341 9.26C105.061 9.08667 104.688 9 104.221 9C103.648 9 103.161 9.15333 102.761 9.46C102.361 9.76667 102.061 10.18 101.861 10.7C101.661 11.2067 101.561 11.7867 101.561 12.44V17.5H99.1214Z" fill="white"/>
<path d="M40.87 29.5V22.43H43.38C44.1133 22.43 44.7267 22.58 45.22 22.88C45.7133 23.1733 46.0833 23.5867 46.33 24.12C46.5833 24.6467 46.71 25.2633 46.71 25.97C46.71 26.67 46.5867 27.2867 46.34 27.82C46.0933 28.3467 45.7233 28.76 45.23 29.06C44.7367 29.3533 44.12 29.5 43.38 29.5H40.87ZM41.74 28.71H43.32C43.8933 28.71 44.3633 28.5933 44.73 28.36C45.0967 28.1267 45.37 27.8067 45.55 27.4C45.73 26.9867 45.82 26.51 45.82 25.97C45.82 25.4433 45.73 24.9733 45.55 24.56C45.3767 24.1467 45.11 23.82 44.75 23.58C44.39 23.34 43.93 23.22 43.37 23.22H41.74V28.71ZM47.7508 29.5L50.3808 22.43H51.6308L54.2508 29.5H53.3108L52.7508 27.98H49.2508L48.6908 29.5H47.7508ZM49.5408 27.19H52.4608L51.0008 23.19L49.5408 27.19ZM58.2235 29.58C57.7768 29.58 57.3535 29.52 56.9535 29.4C56.5602 29.2733 56.2235 29.07 55.9435 28.79C55.6635 28.5033 55.4735 28.1233 55.3735 27.65H56.2835C56.3768 27.95 56.5268 28.1833 56.7335 28.35C56.9468 28.5167 57.1902 28.6333 57.4635 28.7C57.7368 28.76 58.0102 28.79 58.2835 28.79C58.5568 28.79 58.8102 28.7533 59.0435 28.68C59.2835 28.6 59.4768 28.4733 59.6235 28.3C59.7768 28.1267 59.8535 27.9033 59.8535 27.63C59.8535 27.4167 59.8135 27.2433 59.7335 27.11C59.6602 26.9767 59.5535 26.87 59.4135 26.79C59.2802 26.7033 59.1202 26.6333 58.9335 26.58C58.6868 26.5 58.4235 26.4333 58.1435 26.38C57.8635 26.3267 57.5868 26.2633 57.3135 26.19C57.0468 26.1167 56.7968 26.0233 56.5635 25.91C56.4368 25.8433 56.3135 25.7633 56.1935 25.67C56.0802 25.57 55.9802 25.4567 55.8935 25.33C55.8135 25.1967 55.7468 25.0467 55.6935 24.88C55.6468 24.7133 55.6235 24.53 55.6235 24.33C55.6235 24.03 55.6702 23.77 55.7635 23.55C55.8568 23.33 55.9835 23.1433 56.1435 22.99C56.3035 22.8367 56.4902 22.7133 56.7035 22.62C56.9168 22.5267 57.1435 22.46 57.3835 22.42C57.6302 22.3733 57.8768 22.35 58.1235 22.35C58.5302 22.35 58.9102 22.4133 59.2635 22.54C59.6235 22.66 59.9202 22.8567 60.1535 23.13C60.3935 23.4033 60.5235 23.7733 60.5435 24.24H59.6935C59.6602 23.96 59.5668 23.74 59.4135 23.58C59.2602 23.42 59.0702 23.3067 58.8435 23.24C58.6168 23.1733 58.3768 23.14 58.1235 23.14C57.9368 23.14 57.7468 23.1567 57.5535 23.19C57.3668 23.2233 57.1935 23.2833 57.0335 23.37C56.8802 23.45 56.7568 23.5633 56.6635 23.71C56.5702 23.85 56.5235 24.03 56.5235 24.25C56.5235 24.4233 56.5535 24.5767 56.6135 24.71C56.6802 24.8433 56.7668 24.9567 56.8735 25.05C56.9868 25.1367 57.1102 25.21 57.2435 25.27C57.5635 25.4033 57.9168 25.5033 58.3035 25.57C58.6968 25.63 59.0635 25.72 59.4035 25.84C59.6035 25.9067 59.7868 25.99 59.9535 26.09C60.1202 26.19 60.2602 26.3067 60.3735 26.44C60.4935 26.5733 60.5835 26.7267 60.6435 26.9C60.7102 27.0667 60.7435 27.2567 60.7435 27.47C60.7435 27.8567 60.6768 28.1867 60.5435 28.46C60.4102 28.7267 60.2268 28.9433 59.9935 29.11C59.7602 29.2767 59.4902 29.3967 59.1835 29.47C58.8835 29.5433 58.5635 29.58 58.2235 29.58ZM62.797 29.5V22.43H63.667V25.63H67.457V22.43H68.327V29.5H67.457V26.43H63.667V29.5H62.797ZM70.6526 29.5V22.43H73.1326C73.4859 22.43 73.8059 22.46 74.0926 22.52C74.3792 22.5733 74.6259 22.6667 74.8326 22.8C75.0459 22.9333 75.2092 23.1133 75.3226 23.34C75.4359 23.5667 75.4926 23.8533 75.4926 24.2C75.4926 24.56 75.4092 24.88 75.2426 25.16C75.0826 25.44 74.8326 25.6467 74.4926 25.78C74.9459 25.86 75.2859 26.0467 75.5126 26.34C75.7392 26.6267 75.8526 27.01 75.8526 27.49C75.8526 27.8833 75.7792 28.21 75.6326 28.47C75.4859 28.73 75.2826 28.9367 75.0226 29.09C74.7692 29.2367 74.4759 29.3433 74.1426 29.41C73.8092 29.47 73.4559 29.5 73.0826 29.5H70.6526ZM71.5226 28.71H73.0526C73.2592 28.71 73.4726 28.7 73.6926 28.68C73.9192 28.6533 74.1292 28.6033 74.3226 28.53C74.5159 28.45 74.6726 28.3267 74.7926 28.16C74.9126 27.9933 74.9726 27.77 74.9726 27.49C74.9726 27.25 74.9259 27.0533 74.8326 26.9C74.7459 26.7467 74.6259 26.6267 74.4726 26.54C74.3259 26.4533 74.1559 26.3933 73.9626 26.36C73.7692 26.3267 73.5726 26.31 73.3726 26.31H71.5226V28.71ZM71.5226 25.53H72.8826C73.1292 25.53 73.3592 25.51 73.5726 25.47C73.7859 25.4233 73.9726 25.35 74.1326 25.25C74.2926 25.15 74.4159 25.02 74.5026 24.86C74.5959 24.7 74.6426 24.5 74.6426 24.26C74.6492 23.9533 74.5826 23.7267 74.4426 23.58C74.3026 23.4333 74.1159 23.3367 73.8826 23.29C73.6559 23.2433 73.4092 23.22 73.1426 23.22H71.5226V25.53ZM80.7553 29.58C80.022 29.58 79.4086 29.4233 78.9153 29.11C78.422 28.7967 78.0486 28.3667 77.7953 27.82C77.5486 27.2733 77.4253 26.6567 77.4253 25.97C77.4253 25.2767 77.5486 24.6567 77.7953 24.11C78.0486 23.5633 78.422 23.1333 78.9153 22.82C79.4086 22.5067 80.022 22.35 80.7553 22.35C81.4886 22.35 82.0986 22.5067 82.5853 22.82C83.0786 23.1333 83.4486 23.5633 83.6953 24.11C83.9486 24.6567 84.0753 25.2767 84.0753 25.97C84.0753 26.6567 83.9486 27.2733 83.6953 27.82C83.4486 28.3667 83.0786 28.7967 82.5853 29.11C82.0986 29.4233 81.4886 29.58 80.7553 29.58ZM80.7553 28.79C81.3153 28.79 81.7753 28.6633 82.1353 28.41C82.4953 28.15 82.7586 27.8067 82.9253 27.38C83.0986 26.9533 83.1853 26.4833 83.1853 25.97C83.1853 25.5833 83.1353 25.22 83.0353 24.88C82.942 24.5333 82.7953 24.23 82.5953 23.97C82.3953 23.71 82.142 23.5067 81.8353 23.36C81.5286 23.2133 81.1686 23.14 80.7553 23.14C80.202 23.14 79.742 23.27 79.3753 23.53C79.0153 23.79 78.7453 24.1333 78.5653 24.56C78.392 24.9867 78.3053 25.4567 78.3053 25.97C78.3053 26.4767 78.392 26.9433 78.5653 27.37C78.7386 27.7967 79.0053 28.14 79.3653 28.4C79.732 28.66 80.1953 28.79 80.7553 28.79ZM85.1062 29.5L87.7362 22.43H88.9862L91.6062 29.5H90.6662L90.1062 27.98H86.6062L86.0462 29.5H85.1062ZM86.8962 27.19H89.8162L88.3562 23.19L86.8962 27.19ZM93.1755 29.5V22.43H95.8255C96.2188 22.43 96.5688 22.47 96.8755 22.55C97.1888 22.63 97.4555 22.7567 97.6755 22.93C97.8955 23.1033 98.0621 23.3333 98.1755 23.62C98.2955 23.9 98.3555 24.24 98.3555 24.64C98.3555 25.0333 98.2821 25.37 98.1355 25.65C97.9888 25.9233 97.7955 26.1467 97.5555 26.32C97.3155 26.4933 97.0555 26.62 96.7755 26.7L98.2555 29.5H97.3055L95.8955 26.85H94.0455V29.5H93.1755ZM94.0455 26.06H95.5455C95.8055 26.06 96.0488 26.04 96.2755 26C96.5088 25.96 96.7121 25.89 96.8855 25.79C97.0655 25.6833 97.2055 25.5367 97.3055 25.35C97.4055 25.1567 97.4588 24.91 97.4655 24.61C97.4721 24.27 97.4088 24 97.2755 23.8C97.1421 23.5933 96.9455 23.4467 96.6855 23.36C96.4255 23.2667 96.1088 23.22 95.7355 23.22H94.0455V26.06ZM100.357 29.5V22.43H102.867C103.601 22.43 104.214 22.58 104.707 22.88C105.201 23.1733 105.571 23.5867 105.817 24.12C106.071 24.6467 106.197 25.2633 106.197 25.97C106.197 26.67 106.074 27.2867 105.827 27.82C105.581 28.3467 105.211 28.76 104.717 29.06C104.224 29.3533 103.607 29.5 102.867 29.5H100.357ZM101.227 28.71H102.807C103.381 28.71 103.851 28.5933 104.217 28.36C104.584 28.1267 104.857 27.8067 105.037 27.4C105.217 26.9867 105.307 26.51 105.307 25.97C105.307 25.4433 105.217 24.9733 105.037 24.56C104.864 24.1467 104.597 23.82 104.237 23.58C103.877 23.34 103.417 23.22 102.857 23.22H101.227V28.71Z" fill="white" fill-opacity="0.5"/>
</svg>
