<svg width="164" height="24" viewBox="0 0 164 24" fill="none" xmlns="http://www.w3.org/2000/svg">
  <path d="M0 2.845C0 5.298.8 6.5 4 8.692c3.55 2.453 4 3.236 4 6.89 0 5.116 1.5 8.143 4.05 8.143 1.75 0 1.95-.73 1.95-8.09l-.05-8.092-6.4-3.915C-.15-1.07 0-1.07 0 2.845m22.25.835-6.2 3.863-.05 8.091c0 7.36.2 8.091 1.95 8.091 2.55 0 4.05-3.027 4.05-8.143 0-3.654.45-4.437 4-6.89 3.2-2.193 4-3.394 4-5.847 0-3.915-.15-3.863-7.75.835" fill="#1B84FF" />
  <path d="M44.347 5.004h2.232l3.287 9.396 3.288-9.396h2.232l-4.623 12.797H48.97zm-1.204 0h2.223l.405 9.158v3.64h-2.628zm11.223 0H56.6v12.797h-2.637v-3.639zm9.906 2.189L60.792 17.8h-2.805l4.755-12.797h1.785zM67.163 17.8 63.674 7.193l-.281-2.189h1.802l4.78 12.797zm-.158-4.764v2.066h-6.759v-2.066zm8.79-8.033V17.8h-2.629V5.004zm3.937 0V7.07H69.29V5.004zm10.09 10.74V17.8H83.01v-2.057zm-5.95-10.74V17.8h-2.637V5.004zm5.062 5.212v2.004H83.01v-2.004zm.879-5.212V7.07H83.01V5.004zm1.547 0h4.772q1.469 0 2.522.44 1.064.44 1.635 1.3.572.861.572 2.119 0 1.028-.352 1.766a3.3 3.3 0 0 1-.976 1.222q-.624.483-1.467.773l-.835.44h-4.149l-.017-2.057h3.085q.693 0 1.151-.246.457-.247.686-.685.237-.44.237-1.02 0-.615-.229-1.064a1.54 1.54 0 0 0-.694-.685q-.465-.237-1.169-.237h-2.136V17.8H91.36zM98.514 17.8l-2.918-5.704 2.786-.018 2.953 5.599v.123zm7.181-12.797V17.8h-2.628V5.004zm7.831 2.189L110.045 17.8h-2.804l4.755-12.797h1.784zm2.891 10.608-3.489-10.608-.281-2.189h1.801L119.23 17.8zm-.158-4.764v2.066H109.5v-2.066zm12.384 2.707V17.8H122.2v-2.057zm-5.59-10.74V17.8h-2.637V5.004zm11.935 7.585h-3.647v-.923h3.647q1.143 0 1.855-.369.72-.378 1.046-1.02a3.1 3.1 0 0 0 .334-1.44q0-.783-.334-1.442-.326-.66-1.046-1.055-.712-.404-1.855-.404h-3.269V17.8h-1.081V5.004h4.35q1.407 0 2.365.484.966.483 1.459 1.344.492.862.492 1.987 0 1.178-.492 2.03-.493.843-1.45 1.292-.958.448-2.374.448m6.715-7.585h4.158q1.326 0 2.302.43.976.432 1.503 1.275.536.835.536 2.057 0 .905-.386 1.643a3.56 3.56 0 0 1-1.046 1.24 3.9 3.9 0 0 1-1.547.677l-.378.14h-4.439l-.017-.923h3.718q1.001 0 1.67-.386a2.54 2.54 0 0 0 1.002-1.02q.342-.642.342-1.371 0-.87-.378-1.503-.369-.642-1.098-.984-.73-.343-1.784-.343h-3.077V17.8h-1.081zm7.902 12.797-3.314-5.722 1.16-.008 3.305 5.616v.114zm13.016-7.084v1.371q0 1.345-.351 2.435a5.3 5.3 0 0 1-1.002 1.854 4.4 4.4 0 0 1-1.565 1.187q-.914.413-2.056.413a4.9 4.9 0 0 1-2.039-.413 4.46 4.46 0 0 1-1.574-1.187 5.5 5.5 0 0 1-1.019-1.854q-.36-1.09-.36-2.435v-1.37q0-1.345.351-2.427.36-1.089 1.02-1.863a4.45 4.45 0 0 1 1.573-1.186q.914-.414 2.03-.414 1.143 0 2.057.414.914.412 1.573 1.186t1.011 1.863q.351 1.082.351 2.426m-1.072 1.371V10.7q0-1.134-.264-2.04-.254-.905-.764-1.546a3.34 3.34 0 0 0-1.231-.985q-.73-.343-1.661-.343-.905 0-1.626.343a3.45 3.45 0 0 0-1.23.985 4.7 4.7 0 0 0-.774 1.546q-.263.906-.263 2.04v1.388q0 1.142.263 2.057.273.905.782 1.556.51.64 1.231.984a3.8 3.8 0 0 0 1.635.343q.94 0 1.661-.343.72-.343 1.222-.984a4.6 4.6 0 0 0 .755-1.556q.264-.915.264-2.057" fill="#000" />
</svg>