<svg xmlns="http://www.w3.org/2000/svg" width="95" height="31" fill="none"><rect width="31" height="12" x="12" fill="#1E4DB7" rx="6" transform="rotate(90 12 0)"></rect><rect width="25" height="12" fill="#1A9BFC" rx="6"></rect><circle cx="18.5" cy="22.5" r="6.5" fill="#FEC90F"></circle><path fill="#11142D" d="M37 21.5V4.7h10.848v2.472h-7.776v4.704h6.288V14.3h-6.288v7.2zM49.907 21.5V4.22h3.072V21.5zM61.662 21.788q-1.8 0-3.192-.768a5.56 5.56 0 0 1-2.184-2.16q-.792-1.392-.792-3.216 0-1.848.768-3.288a5.7 5.7 0 0 1 2.16-2.232q1.392-.816 3.264-.816 1.752 0 3.096.768a5.4 5.4 0 0 1 2.088 2.112q.768 1.32.768 2.952 0 .264-.024.552 0 .288-.024.6h-9.048q.096 1.392.96 2.184.888.792 2.136.792.936 0 1.56-.408.648-.432.96-1.104h3.12a5.7 5.7 0 0 1-1.128 2.064 5.4 5.4 0 0 1-1.92 1.44q-1.128.528-2.568.528m.024-9.984a3.23 3.23 0 0 0-1.992.648q-.864.624-1.104 1.92h5.928q-.072-1.176-.864-1.872t-1.968-.696M68.033 21.5l4.32-5.952-4.32-5.952h3.288l3.024 4.224 3-4.224h3.312l-4.344 5.952 4.344 5.952h-3.312l-3-4.224-3.024 4.224zM83.862 26.78l2.76-6.072h-.72L81.27 9.596h3.336l3.336 8.376 3.48-8.376h3.264l-7.56 17.184z"></path></svg>