<svg width="156" height="32" viewBox="0 0 156 32" fill="none" xmlns="http://www.w3.org/2000/svg">
<rect width="32" height="32" rx="16" fill="#053B25"/>
<path d="M25.7062 15.6006C25.2143 15.6897 24.7076 15.7362 24.1901 15.7362C19.511 15.7362 15.7177 11.935 15.7177 7.24593C15.7177 7.11556 15.7207 6.98587 15.7265 6.85693C11.0729 7.28407 7.42822 11.2058 7.42822 15.9805C7.42822 21.0406 11.5216 25.1426 16.5711 25.1426C21.6205 25.1426 25.7139 21.0406 25.7139 15.9805C25.7139 15.8533 25.7113 15.7266 25.7062 15.6006Z" fill="#C2FD75"/>
<path d="M42.9496 24V7.82797H46.0148L53.8149 19.6082V7.82797H56.6741V24H53.6776L45.8089 12.2884V24H42.9496ZM59.369 24V11.9453H62.1596V24H59.369ZM60.7643 10.55C60.2306 10.55 59.8036 10.3899 59.4834 10.0696C59.1631 9.7494 59.003 9.33004 59.003 8.81156C59.003 8.30833 59.1708 7.89659 59.5062 7.57635C59.8417 7.24087 60.2611 7.07312 60.7643 7.07312C61.2523 7.07312 61.6717 7.23324 62.0224 7.55348C62.3731 7.87372 62.5485 8.29308 62.5485 8.81156C62.5485 9.33004 62.3808 9.7494 62.0453 10.0696C61.7098 10.3899 61.2828 10.55 60.7643 10.55ZM69.7135 24.1601C68.463 24.1601 67.4108 23.9085 66.5568 23.4053C65.7029 22.8868 65.0548 22.1624 64.6125 21.2322C64.1703 20.302 63.9492 19.2269 63.9492 18.007C63.9492 16.787 64.1779 15.7119 64.6354 14.7817C65.0929 13.8362 65.7639 13.0967 66.6483 12.5629C67.5328 12.0292 68.6079 11.7623 69.8736 11.7623C70.8038 11.7623 71.6273 11.9224 72.344 12.2427C73.076 12.5629 73.6631 13.0357 74.1053 13.6609C74.5628 14.2709 74.8525 15.0333 74.9745 15.9483H72.2296C72.0466 15.3688 71.7417 14.9495 71.3147 14.6902C70.9029 14.4157 70.4073 14.2785 69.8278 14.2785C69.0501 14.2785 68.4325 14.4691 67.975 14.8503C67.5328 15.2163 67.2126 15.6814 67.0143 16.2457C66.8161 16.8099 66.717 17.397 66.717 18.007C66.717 18.6474 66.8237 19.2498 67.0372 19.814C67.2507 20.363 67.5786 20.8052 68.0208 21.1407C68.4783 21.4762 69.0654 21.644 69.7821 21.644C70.3616 21.644 70.8801 21.5143 71.3375 21.2551C71.8103 20.9959 72.1153 20.5765 72.2525 19.997H75.0889C74.9822 20.9272 74.6695 21.705 74.1511 22.3302C73.6478 22.9402 73.0074 23.3976 72.2296 23.7026C71.4519 24.0076 70.6132 24.1601 69.7135 24.1601ZM82.1248 24.1601C80.8744 24.1601 79.8069 23.9009 78.9225 23.3824C78.0532 22.8639 77.3899 22.1472 76.9324 21.2322C76.4902 20.302 76.2691 19.2269 76.2691 18.007C76.2691 16.787 76.4978 15.7119 76.9553 14.7817C77.428 13.8362 78.099 13.0967 78.9682 12.5629C79.8527 12.0292 80.9125 11.7623 82.1477 11.7623C83.0627 11.7623 83.8633 11.9301 84.5495 12.2656C85.2357 12.5858 85.8076 13.028 86.2651 13.5923C86.7378 14.1565 87.0885 14.797 87.3173 15.5137C87.546 16.2304 87.6528 16.9853 87.6375 17.7782C87.6223 17.9612 87.607 18.1442 87.5918 18.3272C87.5765 18.495 87.5537 18.6779 87.5232 18.8762H79.0597C79.1055 19.4099 79.2427 19.8979 79.4714 20.3401C79.7154 20.7824 80.0509 21.1331 80.4779 21.3923C80.9201 21.6516 81.4691 21.7812 82.1248 21.7812C82.5061 21.7812 82.8721 21.7355 83.2228 21.644C83.5735 21.5372 83.8785 21.3847 84.1378 21.1865C84.4123 20.9882 84.5953 20.7366 84.6868 20.4316H87.4774C87.2792 21.3008 86.9132 22.0099 86.3794 22.5589C85.8457 23.1079 85.2052 23.512 84.458 23.7713C83.726 24.0305 82.9483 24.1601 82.1248 24.1601ZM79.1055 16.7946H84.9155C84.9155 16.2914 84.8011 15.8339 84.5724 15.4222C84.3436 15.0105 84.0158 14.6902 83.5888 14.4615C83.1771 14.2175 82.6738 14.0955 82.0791 14.0955C81.4386 14.0955 80.9049 14.2251 80.4779 14.4843C80.0509 14.7436 79.7231 15.0791 79.4943 15.4908C79.2656 15.9025 79.136 16.3372 79.1055 16.7946ZM88.1458 24L94.3447 7.82797H97.7529L103.929 24H100.841L99.7658 21.0035H92.3089L91.2109 24H88.1458ZM93.2238 18.4187H98.828L96.0373 10.7101L93.2238 18.4187ZM109.836 24.1601C108.616 24.1601 107.61 23.8856 106.817 23.3366C106.024 22.7724 105.429 22.0252 105.032 21.095C104.651 20.1648 104.461 19.1278 104.461 17.9841C104.461 16.7946 104.666 15.7348 105.078 14.8046C105.49 13.8591 106.108 13.1195 106.931 12.5858C107.754 12.0368 108.784 11.7623 110.019 11.7623C110.476 11.7623 110.919 11.8157 111.346 11.9224C111.788 12.0139 112.2 12.1664 112.581 12.3799C112.977 12.5782 113.305 12.845 113.564 13.1805V7.82797H116.355V24H113.656L113.61 22.4903C113.32 22.8715 112.977 23.1842 112.581 23.4281C112.2 23.6721 111.773 23.8551 111.3 23.9771C110.827 24.0991 110.339 24.1601 109.836 24.1601ZM110.362 21.644C111.094 21.644 111.696 21.4762 112.169 21.1407C112.642 20.79 112.993 20.3325 113.221 19.7683C113.465 19.1888 113.587 18.5788 113.587 17.9383C113.587 17.2674 113.465 16.6574 113.221 16.1084C112.993 15.5594 112.642 15.1172 112.169 14.7817C111.696 14.4462 111.094 14.2785 110.362 14.2785C109.584 14.2785 108.967 14.4539 108.509 14.8046C108.067 15.1553 107.739 15.6204 107.526 16.1999C107.327 16.7641 107.228 17.3741 107.228 18.0298C107.228 18.5178 107.282 18.9829 107.388 19.4252C107.51 19.8522 107.693 20.2334 107.937 20.5689C108.181 20.9044 108.502 21.1712 108.898 21.3695C109.295 21.5525 109.783 21.644 110.362 21.644ZM118.601 24V11.9453H121.162L121.345 13.3178C121.65 12.906 121.978 12.5934 122.329 12.3799C122.695 12.1512 123.069 11.9911 123.45 11.8996C123.846 11.8081 124.22 11.7623 124.571 11.7623C125.333 11.7623 125.981 11.9148 126.515 12.2198C127.064 12.5248 127.491 12.9823 127.796 13.5923C128.101 13.1653 128.444 12.8222 128.825 12.5629C129.207 12.2884 129.611 12.0902 130.038 11.9682C130.465 11.8309 130.914 11.7623 131.387 11.7623C132.317 11.7623 133.065 11.9606 133.629 12.3571C134.193 12.7383 134.605 13.272 134.864 13.9582C135.123 14.6292 135.253 15.3993 135.253 16.2685V24H132.462V17.1606C132.462 16.8556 132.447 16.5354 132.417 16.1999C132.386 15.8644 132.302 15.5518 132.165 15.2621C132.043 14.9723 131.86 14.736 131.616 14.553C131.372 14.37 131.029 14.2785 130.587 14.2785C130.144 14.2785 129.778 14.3776 129.489 14.5758C129.214 14.7588 128.985 15.0105 128.802 15.3307C128.635 15.6357 128.513 15.9788 128.436 16.36C128.375 16.726 128.345 17.092 128.345 17.458V24H125.554V17.1378C125.554 16.848 125.531 16.543 125.486 16.2228C125.455 15.8873 125.379 15.5747 125.257 15.2849C125.15 14.98 124.967 14.736 124.708 14.553C124.464 14.37 124.121 14.2785 123.679 14.2785C123.038 14.2785 122.55 14.4539 122.215 14.8046C121.894 15.1553 121.673 15.5823 121.551 16.0855C121.445 16.5888 121.391 17.0691 121.391 17.5266V24H118.601ZM137.376 24V11.9453H140.167V24H137.376ZM138.771 10.55C138.238 10.55 137.811 10.3899 137.491 10.0696C137.17 9.7494 137.01 9.33004 137.01 8.81156C137.01 8.30833 137.178 7.89659 137.513 7.57635C137.849 7.24087 138.268 7.07312 138.771 7.07312C139.259 7.07312 139.679 7.23324 140.03 7.55348C140.38 7.87372 140.556 8.29308 140.556 8.81156C140.556 9.33004 140.388 9.7494 140.052 10.0696C139.717 10.3899 139.29 10.55 138.771 10.55ZM142.414 24V11.9453H145.021L145.182 13.4779C145.502 13.0509 145.875 12.7154 146.302 12.4714C146.729 12.2274 147.179 12.0521 147.652 11.9453C148.125 11.8233 148.567 11.7623 148.979 11.7623C150.122 11.7623 151.022 12.0139 151.678 12.5172C152.349 13.0204 152.822 13.6914 153.096 14.5301C153.371 15.3688 153.508 16.3067 153.508 17.3436V24H150.717V17.8011C150.717 17.3589 150.687 16.9319 150.626 16.5201C150.565 16.0932 150.443 15.7119 150.26 15.3764C150.092 15.041 149.848 14.7741 149.528 14.5758C149.207 14.3776 148.78 14.2785 148.247 14.2785C147.591 14.2785 147.034 14.4539 146.577 14.8046C146.119 15.1553 145.776 15.6281 145.548 16.2228C145.319 16.8023 145.204 17.4656 145.204 18.2128V24H142.414Z" fill="#030E09"/>
</svg>
