<svg width="153" height="35" viewBox="0 0 153 35" fill="none" xmlns="http://www.w3.org/2000/svg">
<path d="M34.5528 17.5C34.5528 7.83502 26.8179 0 17.2764 0C7.73492 0 0 7.83502 0 17.5C0 27.165 7.73492 35 17.2764 35C26.8179 35 34.5528 27.165 34.5528 17.5Z" fill="black"/>
<path d="M27.757 17.0634C27.2258 17.1608 26.6786 17.2116 26.1199 17.2116C21.0674 17.2116 16.9716 13.0541 16.9716 7.92546C16.9716 7.78287 16.9748 7.64102 16.981 7.5C11.9562 7.96718 8.02075 12.2565 8.02075 17.4789C8.02075 23.0134 12.4407 27.4999 17.893 27.4999C23.3453 27.4999 27.7653 23.0134 27.7653 17.4789C27.7653 17.3397 27.7625 17.2013 27.757 17.0634Z" fill="white"/>
<path d="M46.3762 25.7601V8.07195H49.686L58.1083 20.9566V8.07195H61.1957V25.7601H57.9601L49.4636 12.9506V25.7601H46.3762ZM64.1056 25.7601V12.5753H67.1188V25.7601H64.1056ZM65.6122 11.0492C65.0359 11.0492 64.5748 10.874 64.229 10.5238C63.8832 10.1735 63.7103 9.71483 63.7103 9.14775C63.7103 8.59734 63.8915 8.147 64.2537 7.79675C64.616 7.42981 65.0688 7.24634 65.6122 7.24634C66.1391 7.24634 66.5918 7.42146 66.9705 7.77173C67.3492 8.12198 67.5386 8.58066 67.5386 9.14775C67.5386 9.71483 67.3575 10.1735 66.9953 10.5238C66.633 10.874 66.172 11.0492 65.6122 11.0492ZM75.2753 25.9352C73.9251 25.9352 72.7888 25.66 71.8668 25.1097C70.9447 24.5425 70.2449 23.7503 69.7674 22.7329C69.2899 21.7154 69.051 20.5395 69.051 19.2052C69.051 17.871 69.298 16.695 69.792 15.6776C70.2861 14.6435 71.0106 13.8346 71.9655 13.2508C72.9206 12.667 74.0814 12.3752 75.4482 12.3752C76.4525 12.3752 77.3417 12.5503 78.1156 12.9005C78.9059 13.2508 79.5399 13.7678 80.0174 14.4517C80.5114 15.1188 80.8243 15.9528 80.956 16.9535H77.9921C77.7946 16.3198 77.4652 15.8611 77.0041 15.5775C76.5595 15.2773 76.0245 15.1272 75.3987 15.1272C74.5589 15.1272 73.892 15.3357 73.3981 15.7526C72.9205 16.153 72.5747 16.6616 72.3608 17.2788C72.1467 17.8959 72.0397 18.5381 72.0397 19.2052C72.0397 19.9057 72.155 20.5646 72.3854 21.1817C72.6159 21.7821 72.97 22.2658 73.4475 22.6328C73.9415 22.9997 74.5755 23.1831 75.3493 23.1831C75.975 23.1831 76.5349 23.0414 77.0289 22.7578C77.5393 22.4743 77.8687 22.0157 78.0168 21.3819H81.0794C80.9642 22.3993 80.6267 23.2499 80.0668 23.9338C79.5235 24.6009 78.8319 25.1013 77.9921 25.4349C77.1523 25.7685 76.2467 25.9352 75.2753 25.9352ZM88.6768 25.9352C87.3266 25.9352 86.1739 25.6517 85.2189 25.0846C84.2803 24.5175 83.5641 23.7336 83.0701 22.7329C82.5926 21.7154 82.3538 20.5395 82.3538 19.2052C82.3538 17.871 82.6007 16.695 83.0948 15.6776C83.6053 14.6435 84.3298 13.8346 85.2684 13.2508C86.2233 12.667 87.3676 12.3752 88.7014 12.3752C89.6895 12.3752 90.5538 12.5586 91.2948 12.9256C92.0359 13.2758 92.6533 13.7595 93.1472 14.3767C93.6576 14.9938 94.0365 15.6942 94.2835 16.4782C94.5305 17.2621 94.6457 18.0877 94.6291 18.955C94.6127 19.1552 94.5962 19.3554 94.5798 19.5554C94.5633 19.739 94.5386 19.939 94.5057 20.1559H85.367C85.4165 20.7397 85.5647 21.2734 85.8117 21.7571C86.0751 22.2408 86.4373 22.6244 86.8984 22.908C87.3759 23.1915 87.9687 23.3333 88.6768 23.3333C89.0884 23.3333 89.4835 23.2832 89.8624 23.1831C90.2411 23.0664 90.5703 22.8996 90.8503 22.6828C91.1466 22.466 91.3443 22.1908 91.4431 21.8572H94.4564C94.2423 22.8079 93.847 23.5835 93.2708 24.184C92.6944 24.7844 92.0028 25.2264 91.1961 25.5099C90.4057 25.7934 89.5659 25.9352 88.6768 25.9352ZM85.4165 17.8792H91.6901C91.6901 17.3289 91.5665 16.8285 91.3195 16.3781C91.0725 15.9278 90.7186 15.5775 90.2575 15.3273C89.8129 15.0605 89.2696 14.927 88.6273 14.927C87.9358 14.927 87.3595 15.0689 86.8984 15.3524C86.4373 15.6359 86.0834 16.0028 85.8364 16.4532C85.5894 16.9036 85.4494 17.3789 85.4165 17.8792ZM97.0304 25.7601V8.07195H103.477C105.305 8.07195 106.852 8.43054 108.12 9.14775C109.388 9.84827 110.351 10.8657 111.01 12.2C111.685 13.5177 112.023 15.1022 112.023 16.9535C112.023 18.7716 111.693 20.3394 111.035 21.657C110.393 22.9747 109.438 23.9922 108.17 24.7093C106.902 25.4098 105.346 25.7601 103.501 25.7601H97.0304ZM100.118 22.908H103.427C104.728 22.908 105.774 22.6578 106.564 22.1575C107.371 21.6403 107.956 20.9399 108.318 20.0558C108.697 19.1552 108.886 18.1127 108.886 16.9285C108.886 15.7777 108.705 14.7519 108.342 13.8512C107.98 12.9506 107.396 12.2417 106.589 11.7247C105.799 11.1909 104.753 10.9241 103.452 10.9241H100.118V22.908ZM118.137 25.9352C117.528 25.9352 116.952 25.8518 116.408 25.6851C115.865 25.5183 115.379 25.2764 114.951 24.9594C114.523 24.626 114.177 24.2173 113.914 23.7336C113.667 23.2332 113.543 22.6494 113.543 21.9823C113.543 21.1317 113.708 20.4395 114.037 19.9057C114.367 19.3554 114.811 18.9383 115.371 18.6548C115.947 18.3713 116.598 18.1795 117.322 18.0794C118.047 17.9627 118.804 17.9043 119.594 17.9043H122.138C122.138 17.3205 122.048 16.8201 121.867 16.4032C121.686 15.9695 121.398 15.6276 121.002 15.3774C120.624 15.1272 120.13 15.0021 119.52 15.0021C119.125 15.0021 118.755 15.0522 118.409 15.1522C118.08 15.2356 117.791 15.3774 117.544 15.5775C117.314 15.761 117.149 16.0028 117.05 16.3031H113.963C114.078 15.6192 114.309 15.0354 114.655 14.5517C115.017 14.0513 115.453 13.6428 115.964 13.3259C116.491 13.0089 117.067 12.7754 117.693 12.6253C118.318 12.4585 118.952 12.3752 119.594 12.3752C121.488 12.3752 122.863 12.9256 123.719 14.0264C124.592 15.1272 125.028 16.67 125.028 18.6548V25.7601H122.361L122.287 24.0588C121.908 24.626 121.455 25.0429 120.928 25.3097C120.401 25.5767 119.891 25.7434 119.397 25.8101C118.903 25.8935 118.483 25.9352 118.137 25.9352ZM118.73 23.4584C119.389 23.4584 119.973 23.3333 120.484 23.0832C120.994 22.833 121.398 22.4827 121.694 22.0323C122.007 21.5819 122.163 21.0649 122.163 20.4811V20.0558H119.792C119.397 20.0558 119.002 20.0726 118.606 20.1059C118.228 20.1226 117.882 20.1892 117.569 20.306C117.256 20.4061 117.001 20.5646 116.803 20.7814C116.622 20.9983 116.532 21.3068 116.532 21.7071C116.532 22.1074 116.631 22.4326 116.828 22.6828C117.042 22.9329 117.314 23.1247 117.643 23.2583C117.989 23.3917 118.351 23.4584 118.73 23.4584ZM132.4 25.9352C131.775 25.9352 131.149 25.8685 130.523 25.735C129.914 25.6016 129.338 25.3848 128.794 25.0846C128.251 24.7676 127.798 24.3423 127.436 23.8086C127.074 23.275 126.835 22.6077 126.719 21.8072H129.757C129.889 22.1741 130.095 22.4743 130.375 22.7078C130.671 22.9247 131.009 23.0914 131.388 23.2082C131.783 23.3083 132.17 23.3583 132.549 23.3583C132.779 23.3583 133.026 23.3416 133.289 23.3083C133.569 23.275 133.825 23.2082 134.055 23.1081C134.302 23.0081 134.5 22.8663 134.648 22.6828C134.796 22.4827 134.87 22.2241 134.87 21.9073C134.87 21.607 134.788 21.3735 134.623 21.2067C134.459 21.0232 134.236 20.8815 133.956 20.7814C133.676 20.6647 133.339 20.573 132.944 20.5062C132.236 20.3561 131.478 20.1976 130.671 20.0309C129.865 19.8473 129.165 19.5638 128.572 19.1802C128.325 19.0302 128.111 18.855 127.93 18.6548C127.749 18.4546 127.592 18.2379 127.461 18.0044C127.345 17.7542 127.255 17.4872 127.189 17.2037C127.139 16.9202 127.115 16.6117 127.115 16.278C127.115 15.5775 127.255 14.9854 127.535 14.5017C127.831 14.0014 128.218 13.6011 128.695 13.3008C129.189 12.9839 129.749 12.7504 130.375 12.6003C131.001 12.4502 131.643 12.3752 132.302 12.3752C133.191 12.3752 133.998 12.5169 134.722 12.8005C135.447 13.084 136.047 13.5177 136.525 14.1015C137.019 14.6853 137.315 15.4274 137.414 16.328H134.549C134.467 15.9111 134.211 15.5775 133.783 15.3273C133.372 15.0771 132.845 14.9521 132.203 14.9521C131.972 14.9521 131.733 14.977 131.486 15.0271C131.239 15.0605 131.001 15.1272 130.77 15.2272C130.556 15.3106 130.375 15.4441 130.227 15.6276C130.095 15.811 130.029 16.0363 130.029 16.3031C130.029 16.5533 130.087 16.7701 130.202 16.9535C130.334 17.1371 130.523 17.2954 130.77 17.4288C131.034 17.5456 131.338 17.6457 131.684 17.7291C132.244 17.8459 132.828 17.9627 133.438 18.0794C134.047 18.1962 134.574 18.3129 135.018 18.4297C135.545 18.5798 136.023 18.7966 136.451 19.0801C136.879 19.347 137.208 19.7057 137.439 20.1559C137.686 20.5896 137.809 21.1484 137.809 21.8321C137.809 22.6328 137.645 23.2999 137.315 23.8337C137.003 24.3674 136.583 24.7844 136.056 25.0846C135.529 25.3848 134.944 25.6016 134.302 25.735C133.66 25.8685 133.026 25.9352 132.4 25.9352ZM139.531 25.7601V8.07195H142.546V14.2766C142.891 13.8262 143.295 13.4593 143.755 13.1757C144.217 12.8922 144.702 12.6921 145.213 12.5753C145.723 12.4419 146.208 12.3752 146.67 12.3752C147.905 12.3752 148.876 12.6504 149.585 13.2008C150.292 13.7512 150.786 14.4851 151.066 15.4023C151.362 16.3198 151.511 17.3538 151.511 18.5047V25.7601H148.497V19.0302C148.497 18.5798 148.465 18.1211 148.399 17.6541C148.333 17.1871 148.201 16.7701 148.004 16.4032C147.823 16.0195 147.542 15.7109 147.163 15.4775C146.801 15.244 146.316 15.1272 145.707 15.1272C145.13 15.1272 144.637 15.2523 144.225 15.5024C143.813 15.736 143.484 16.0612 143.237 16.4782C143.006 16.8952 142.833 17.3538 142.718 17.8542C142.602 18.3547 142.546 18.855 142.546 19.3554V25.7601H139.531Z" fill="black"/>
</svg>
