<svg width="153" height="32" viewBox="0 0 153 32" fill="none" xmlns="http://www.w3.org/2000/svg">
<rect width="32" height="32" rx="16" fill="#141A18"/>
<path d="M25.7065 15.6009C25.2146 15.6899 24.7079 15.7364 24.1904 15.7364C19.5112 15.7364 15.718 11.9352 15.718 7.24617C15.718 7.1158 15.7209 6.98611 15.7267 6.85718C11.0732 7.28431 7.42847 11.206 7.42847 15.9807C7.42847 21.0409 11.5219 25.1429 16.5713 25.1429C21.6208 25.1429 25.7142 21.0409 25.7142 15.9807C25.7142 15.8535 25.7116 15.7269 25.7065 15.6009Z" fill="#C2FD75"/>
<path d="M40.8071 24V7.82797H43.8722L51.6723 19.6082V7.82797H54.5316V24H51.535L43.6663 12.2884V24H40.8071ZM57.2264 24V11.9453H60.0171V24H57.2264ZM58.6217 10.55C58.088 10.55 57.661 10.3899 57.3408 10.0696C57.0205 9.7494 56.8604 9.33004 56.8604 8.81156C56.8604 8.30833 57.0282 7.89659 57.3637 7.57635C57.6991 7.24087 58.1185 7.07312 58.6217 7.07312C59.1097 7.07312 59.5291 7.23324 59.8798 7.55348C60.2306 7.87372 60.4059 8.29308 60.4059 8.81156C60.4059 9.33004 60.2382 9.7494 59.9027 10.0696C59.5672 10.3899 59.1402 10.55 58.6217 10.55ZM67.5709 24.1601C66.3204 24.1601 65.2682 23.9085 64.4143 23.4053C63.5603 22.8868 62.9122 22.1624 62.47 21.2322C62.0277 20.302 61.8066 19.2269 61.8066 18.007C61.8066 16.787 62.0354 15.7119 62.4928 14.7817C62.9503 13.8362 63.6213 13.0967 64.5058 12.5629C65.3902 12.0292 66.4653 11.7623 67.731 11.7623C68.6612 11.7623 69.4847 11.9224 70.2014 12.2427C70.9334 12.5629 71.5205 13.0357 71.9627 13.6609C72.4202 14.2709 72.71 15.0333 72.832 15.9483H70.0871C69.9041 15.3688 69.5991 14.9495 69.1721 14.6902C68.7604 14.4157 68.2647 14.2785 67.6853 14.2785C66.9075 14.2785 66.2899 14.4691 65.8325 14.8503C65.3902 15.2163 65.07 15.6814 64.8717 16.2457C64.6735 16.8099 64.5744 17.397 64.5744 18.007C64.5744 18.6474 64.6811 19.2498 64.8946 19.814C65.1081 20.363 65.436 20.8052 65.8782 21.1407C66.3357 21.4762 66.9228 21.644 67.6395 21.644C68.219 21.644 68.7375 21.5143 69.195 21.2551C69.6677 20.9959 69.9727 20.5765 70.1099 19.997H72.9463C72.8396 20.9272 72.527 21.705 72.0085 22.3302C71.5053 22.9402 70.8648 23.3976 70.0871 23.7026C69.3093 24.0076 68.4706 24.1601 67.5709 24.1601ZM79.9823 24.1601C78.7318 24.1601 77.6644 23.9009 76.7799 23.3824C75.9107 22.8639 75.2473 22.1472 74.7898 21.2322C74.3476 20.302 74.1265 19.2269 74.1265 18.007C74.1265 16.787 74.3552 15.7119 74.8127 14.7817C75.2854 13.8362 75.9564 13.0967 76.8256 12.5629C77.7101 12.0292 78.7699 11.7623 80.0051 11.7623C80.9201 11.7623 81.7207 11.9301 82.4069 12.2656C83.0932 12.5858 83.665 13.028 84.1225 13.5923C84.5952 14.1565 84.946 14.797 85.1747 15.5137C85.4034 16.2304 85.5102 16.9853 85.4949 17.7782C85.4797 17.9612 85.4644 18.1442 85.4492 18.3272C85.4339 18.495 85.4111 18.6779 85.3806 18.8762H76.9171C76.9629 19.4099 77.1001 19.8979 77.3289 20.3401C77.5729 20.7824 77.9083 21.1331 78.3353 21.3923C78.7776 21.6516 79.3265 21.7812 79.9823 21.7812C80.3635 21.7812 80.7295 21.7355 81.0802 21.644C81.431 21.5372 81.736 21.3847 81.9952 21.1865C82.2697 20.9882 82.4527 20.7366 82.5442 20.4316H85.3348C85.1366 21.3008 84.7706 22.0099 84.2369 22.5589C83.7031 23.1079 83.0627 23.512 82.3154 23.7713C81.5835 24.0305 80.8057 24.1601 79.9823 24.1601ZM76.9629 16.7946H82.7729C82.7729 16.2914 82.6585 15.8339 82.4298 15.4222C82.2011 15.0105 81.8732 14.6902 81.4462 14.4615C81.0345 14.2175 80.5313 14.0955 79.9365 14.0955C79.296 14.0955 78.7623 14.2251 78.3353 14.4843C77.9083 14.7436 77.5805 15.0791 77.3517 15.4908C77.123 15.9025 76.9934 16.3372 76.9629 16.7946ZM86.0032 24L92.2021 7.82797H95.6103L101.786 24H98.6983L97.6233 21.0035H90.1663L89.0683 24H86.0032ZM91.0812 18.4187H96.6854L93.8948 10.7101L91.0812 18.4187ZM107.693 24.1601C106.473 24.1601 105.467 23.8856 104.674 23.3366C103.881 22.7724 103.286 22.0252 102.89 21.095C102.509 20.1648 102.318 19.1278 102.318 17.9841C102.318 16.7946 102.524 15.7348 102.936 14.8046C103.347 13.8591 103.965 13.1195 104.788 12.5858C105.612 12.0368 106.641 11.7623 107.876 11.7623C108.334 11.7623 108.776 11.8157 109.203 11.9224C109.645 12.0139 110.057 12.1664 110.438 12.3799C110.835 12.5782 111.163 12.845 111.422 13.1805V7.82797H114.213V24H111.513L111.468 22.4903C111.178 22.8715 110.835 23.1842 110.438 23.4281C110.057 23.6721 109.63 23.8551 109.157 23.9771C108.685 24.0991 108.197 24.1601 107.693 24.1601ZM108.22 21.644C108.952 21.644 109.554 21.4762 110.027 21.1407C110.499 20.79 110.85 20.3325 111.079 19.7683C111.323 19.1888 111.445 18.5788 111.445 17.9383C111.445 17.2674 111.323 16.6574 111.079 16.1084C110.85 15.5594 110.499 15.1172 110.027 14.7817C109.554 14.4462 108.952 14.2785 108.22 14.2785C107.442 14.2785 106.824 14.4539 106.367 14.8046C105.924 15.1553 105.597 15.6204 105.383 16.1999C105.185 16.7641 105.086 17.3741 105.086 18.0298C105.086 18.5178 105.139 18.9829 105.246 19.4252C105.368 19.8522 105.551 20.2334 105.795 20.5689C106.039 20.9044 106.359 21.1712 106.756 21.3695C107.152 21.5525 107.64 21.644 108.22 21.644ZM116.458 24V11.9453H119.02L119.203 13.3178C119.508 12.906 119.836 12.5934 120.186 12.3799C120.552 12.1512 120.926 11.9911 121.307 11.8996C121.704 11.8081 122.077 11.7623 122.428 11.7623C123.191 11.7623 123.839 11.9148 124.372 12.2198C124.921 12.5248 125.348 12.9823 125.653 13.5923C125.958 13.1653 126.301 12.8222 126.683 12.5629C127.064 12.2884 127.468 12.0902 127.895 11.9682C128.322 11.8309 128.772 11.7623 129.245 11.7623C130.175 11.7623 130.922 11.9606 131.486 12.3571C132.051 12.7383 132.462 13.272 132.722 13.9582C132.981 14.6292 133.11 15.3993 133.11 16.2685V24H130.32V17.1606C130.32 16.8556 130.304 16.5354 130.274 16.1999C130.243 15.8644 130.16 15.5518 130.022 15.2621C129.9 14.9723 129.717 14.736 129.473 14.553C129.229 14.37 128.886 14.2785 128.444 14.2785C128.002 14.2785 127.636 14.3776 127.346 14.5758C127.072 14.7588 126.843 15.0105 126.66 15.3307C126.492 15.6357 126.37 15.9788 126.294 16.36C126.233 16.726 126.202 17.092 126.202 17.458V24H123.412V17.1378C123.412 16.848 123.389 16.543 123.343 16.2228C123.313 15.8873 123.236 15.5747 123.114 15.2849C123.008 14.98 122.825 14.736 122.565 14.553C122.321 14.37 121.978 14.2785 121.536 14.2785C120.896 14.2785 120.408 14.4539 120.072 14.8046C119.752 15.1553 119.531 15.5823 119.409 16.0855C119.302 16.5888 119.249 17.0691 119.249 17.5266V24H116.458ZM135.234 24V11.9453H138.024V24H135.234ZM136.629 10.55C136.095 10.55 135.668 10.3899 135.348 10.0696C135.028 9.7494 134.868 9.33004 134.868 8.81156C134.868 8.30833 135.035 7.89659 135.371 7.57635C135.706 7.24087 136.126 7.07312 136.629 7.07312C137.117 7.07312 137.536 7.23324 137.887 7.55348C138.238 7.87372 138.413 8.29308 138.413 8.81156C138.413 9.33004 138.245 9.7494 137.91 10.0696C137.574 10.3899 137.147 10.55 136.629 10.55ZM140.271 24V11.9453H142.879L143.039 13.4779C143.359 13.0509 143.733 12.7154 144.16 12.4714C144.587 12.2274 145.037 12.0521 145.509 11.9453C145.982 11.8233 146.424 11.7623 146.836 11.7623C147.98 11.7623 148.88 12.0139 149.535 12.5172C150.206 13.0204 150.679 13.6914 150.953 14.5301C151.228 15.3688 151.365 16.3067 151.365 17.3436V24H148.575V17.8011C148.575 17.3589 148.544 16.9319 148.483 16.5201C148.422 16.0932 148.3 15.7119 148.117 15.3764C147.949 15.041 147.705 14.7741 147.385 14.5758C147.065 14.3776 146.638 14.2785 146.104 14.2785C145.448 14.2785 144.892 14.4539 144.434 14.8046C143.977 15.1553 143.634 15.6281 143.405 16.2228C143.176 16.8023 143.062 17.4656 143.062 18.2128V24H140.271Z" fill="#030E09"/>
</svg>
